HIERARCHY
ROOT Hips
{
	OFFSET 0.000000 0.000000 0.000000
	CHANNELS 6 Xposition Yposition Zposition Zrotation Yrotation Xrotation 
	JOINT LeftUpLeg_virtual
	{
		OFFSET 0.000000 0.000000 0.000000
		CHANNELS 3 Zrotation Yrotation Xrotation
		JOINT LeftUpLeg
		{
			OFFSET 10.205400 -3.823500 0.155100
			CHANNELS 3 Zrotation Yrotation Xrotation
			JOINT LeftLeg
			{
				OFFSET 0.708757 -12.982077 0.567790
				CHANNELS 3 Zrotation Yrotation Xrotation
				JOINT LeftFoot
				{
					OFFSET -0.708756 -10.717838 -2.184338
					CHANNELS 3 Zrotation Yrotation Xrotation
					JOINT LeftToeBase
					{
						OFFSET 0.108149 -7.191104 7.560241
						CHANNELS 3 Zrotation Yrotation Xrotation
						End Site
						{
							OFFSET 0.000000 0.000000 0.000000
						}
					}
				}
			}
		}
	}
	JOINT RightUpLeg_virtual
	{
		OFFSET 0.000000 0.000000 0.000000
		CHANNELS 3 Zrotation Yrotation Xrotation
		JOINT RightUpLeg
		{
			OFFSET -10.205400 -3.823500 0.005500
			CHANNELS 3 Zrotation Yrotation Xrotation
			JOINT RightLeg
			{
				OFFSET -0.708756 -12.982134 0.610632
				CHANNELS 3 Zrotation Yrotation Xrotation
				JOINT RightFoot
				{
					OFFSET 0.708754 -10.717769 -1.945823
					CHANNELS 3 Zrotation Yrotation Xrotation
					JOINT RightToeBase
					{
						OFFSET -0.108140 -7.191069 7.372968
						CHANNELS 3 Zrotation Yrotation Xrotation
						End Site
						{
							OFFSET 0.000000 0.000000 0.000000
						}
					}
				}
			}
		}
	}
	JOINT Spine_virtual
	{
		OFFSET 0.000000 0.000000 0.000000
		CHANNELS 3 Zrotation Yrotation Xrotation
		JOINT Spine
		{
			OFFSET 0.000000 6.876099 0.125700
			CHANNELS 3 Zrotation Yrotation Xrotation
			JOINT Spine1
			{
				OFFSET 0.000000 8.022060 0.146608
				CHANNELS 3 Zrotation Yrotation Xrotation
				JOINT Spine2
				{
					OFFSET 0.000000 9.168068 0.167552
					CHANNELS 3 Zrotation Yrotation Xrotation
					JOINT Neck_virtual
					{
						OFFSET 0.000000 0.000000 0.000000
						CHANNELS 3 Zrotation Yrotation Xrotation
						JOINT Neck
						{
							OFFSET 0.000000 10.314075 0.188496
							CHANNELS 3 Zrotation Yrotation Xrotation
							JOINT Head
							{
								OFFSET 0.000000 7.643700 -2.377400
								CHANNELS 3 Zrotation Yrotation Xrotation
								End Site
								{
									OFFSET 0.000000 0.000000 0.000000
								}
							}
						}
					}
					JOINT LeftShoulder_virtual
					{
						OFFSET 0.000000 0.000000 0.000000
						CHANNELS 3 Zrotation Yrotation Xrotation
						JOINT LeftShoulder
						{
							OFFSET 4.392200 8.824978 0.174984
							CHANNELS 3 Zrotation Yrotation Xrotation
							JOINT LeftArm
							{
								OFFSET 8.771219 -2.981674 -0.026999
								CHANNELS 3 Zrotation Yrotation Xrotation
								JOINT LeftForeArm
								{
									OFFSET 8.512804 0.000000 -0.000000
									CHANNELS 3 Zrotation Yrotation Xrotation
									JOINT LeftHand
									{
										OFFSET 18.484802 0.000000 -0.000000
										CHANNELS 3 Zrotation Yrotation Xrotation
										End Site
										{
											OFFSET 0.000000 0.000000 0.000000
										}
									}
								}
							}
						}
					}
					JOINT RightShoulder_virtual
					{
						OFFSET 0.000000 0.000000 0.000000
						CHANNELS 3 Zrotation Yrotation Xrotation
						JOINT RightShoulder
						{
							OFFSET -4.392200 8.824993 0.141379
							CHANNELS 3 Zrotation Yrotation Xrotation
							JOINT RightArm
							{
								OFFSET -8.771282 -2.981682 -0.094208
								CHANNELS 3 Zrotation Yrotation Xrotation
								JOINT RightForeArm
								{
									OFFSET -8.494598 0.000000 0.000000
									CHANNELS 3 Zrotation Yrotation Xrotation
									JOINT RightHand
									{
										OFFSET -18.483803 0.000000 0.000001
										CHANNELS 3 Zrotation Yrotation Xrotation
										End Site
										{
											OFFSET 0.000000 0.000000 0.000000
										}
									}
								}
							}
						}
					}
				}
			}
		}
	}
}
MOTION
Frames: 5
Frame Time: 0.033333
-3.548968 35.881470 -12.706814 -178.888187 11.929668 179.239231 -6.537261 -0.865229 45.850172 -7.350364 8.147869 -76.869790 4.659774 7.201914 31.245633 -8.750659 7.390125 10.778653 0.000000 0.000000 0.000000 2.833729 -4.059408 45.759447 -10.113462 -11.501911 -67.602842 -2.028171 -2.349369 30.466025 9.895491 1.030196 19.919473 0.000000 0.000000 0.000000 2.128671 -2.146260 56.972940 -5.995713 -1.155009 19.858212 1.053670 -0.497147 4.971185 -0.075226 0.227089 -0.063700 1.331670 0.527535 8.224091 -3.291817 8.922866 -21.339876 0.000000 0.000000 0.000000 1.916451 1.958561 3.666793 -1.408240 -17.761524 -4.941682 -62.642861 -29.074889 14.992448 11.057652 -54.197397 0.594582 0.000000 0.000000 0.000000 -1.753404 3.037409 2.666449 3.855295 21.520253 -1.618044 48.439401 38.382747 7.096030 -11.259370 57.793652 -10.080698 0.000000 0.000000 0.000000 
-3.527016 35.974194 -12.697157 -179.092751 12.266799 179.473998 -6.260390 -0.928998 42.811199 -7.528947 8.231105 -73.423639 5.481866 7.471413 30.707229 -9.390363 7.530389 11.772548 0.000000 0.000000 0.000000 2.178697 -3.895029 42.221484 -9.501920 -10.838190 -63.746121 -2.332211 -2.014108 29.588516 9.934978 0.857708 20.209594 0.000000 0.000000 0.000000 2.280012 -2.153101 52.840754 -6.452949 -1.142283 18.938202 1.003028 -0.226783 5.071776 -0.031175 0.183453 -0.061761 1.242787 0.998623 8.396322 -3.242304 8.925170 -20.465132 0.000000 0.000000 0.000000 1.846381 2.266257 3.968465 -1.978779 -18.528944 -3.685507 -62.656720 -25.945023 14.963245 10.876106 -55.729583 1.489211 0.000000 0.000000 0.000000 -1.807819 3.348968 2.974708 4.558921 21.170581 -0.408547 48.260740 35.853753 8.757840 -11.463658 58.879011 -10.544823 0.000000 0.000000 0.000000 
-3.480685 36.097630 -12.637903 -179.340031 12.621942 179.631393 -5.807734 -1.224268 39.395742 -7.516459 8.194094 -69.788168 6.455558 8.023284 30.177770 -10.237781 7.707270 13.068665 0.000000 0.000000 0.000000 1.677266 -3.623675 38.175304 -9.000894 -10.036939 -59.817472 -2.749037 -1.414085 28.883658 9.741231 0.725662 20.256939 0.000000 0.000000 0.000000 2.450681 -2.151620 48.390780 -6.856242 -1.116739 18.019487 0.959119 0.010728 5.285804 -0.057329 0.126369 -0.067791 1.153192 1.362031 8.551594 -3.289461 8.814421 -19.877657 0.000000 0.000000 0.000000 1.817662 2.504916 4.256921 -2.568356 -19.216095 -2.442565 -62.000783 -23.172730 14.324735 10.805339 -57.046447 2.118376 0.000000 0.000000 0.000000 -1.869606 3.652882 3.376039 5.075154 20.789342 0.275984 48.094391 33.420252 10.263321 -11.466037 59.811857 -10.805468 0.000000 0.000000 0.000000 
-3.407075 36.227631 -12.595070 -179.503969 12.946246 179.856311 -5.486117 -1.613252 35.961670 -7.400069 8.564711 -65.973549 7.418116 8.796747 29.942381 -10.840332 7.993551 14.163488 0.000000 0.000000 0.000000 1.305816 -3.496793 34.207657 -8.603190 -8.858385 -55.745323 -3.383051 0.171357 28.581553 9.607123 0.936605 20.082105 0.000000 0.000000 0.000000 2.664622 -2.098879 43.854316 -7.166486 -1.046556 17.008535 0.964923 0.262618 5.546555 -0.028659 0.131963 -0.038237 1.111949 1.562705 8.679757 -3.394895 8.585123 -19.411194 0.000000 0.000000 0.000000 1.831785 2.730025 4.713642 -3.368488 -19.809140 -1.472150 -61.063230 -20.479446 13.322876 9.778422 -58.183404 3.650630 0.000000 0.000000 0.000000 -1.883761 3.864139 3.796508 5.659491 20.359481 0.931431 47.900472 31.030601 12.242088 -11.992479 60.721543 -11.569027 0.000000 0.000000 0.000000 
-3.288183 36.345257 -12.624668 -179.601040 12.934483 179.987793 -5.135836 -2.019154 32.568541 -6.221582 8.127596 -62.181728 8.617482 9.293282 29.955598 -12.050434 7.736647 15.014231 0.000000 0.000000 0.000000 1.192075 -3.622003 30.548588 -9.269695 -6.354144 -51.858348 -3.471056 2.658380 28.866288 8.802868 0.574776 19.270950 0.000000 0.000000 0.000000 2.925343 -2.017915 39.505479 -7.375999 -1.006777 15.961348 1.014533 0.404823 5.889258 -0.092106 0.062036 -0.016495 1.175102 1.831712 8.939305 -3.518153 8.339536 -18.826672 0.000000 0.000000 0.000000 1.938865 2.985705 5.147516 -4.206284 -20.178701 -0.447065 -59.825190 -17.952396 12.655490 8.828284 -59.030101 4.946847 0.000000 0.000000 0.000000 -1.812356 4.123873 4.265823 6.459939 19.909877 1.360500 47.639357 28.726741 14.455754 -12.254125 61.797858 -11.996525 0.000000 0.000000 0.000000 
